<svg width="364" height="54" viewBox="0 0 364 54" fill="none" xmlns="http://www.w3.org/2000/svg">
<path d="M0.70982 40.536C2.49915 39.1127 4.57315 38.096 6.93182 37.486C9.29049 36.8353 11.7915 36.4287 14.4348 36.266C17.0782 36.0627 19.7825 36.0017 22.5478 36.083C25.3538 36.1237 28.0785 36.1237 30.7218 36.083C33.4058 36.0423 35.9272 35.8593 38.2858 35.534C40.6852 35.168 42.7998 34.497 44.6298 33.521C44.9552 32.9517 45.2805 32.484 45.6058 32.118C45.9312 31.752 46.1955 31.447 46.3988 31.203C46.8055 30.7557 47.2528 30.4507 47.7408 30.288C48.2695 30.1253 48.8388 30.0847 49.4488 30.166C49.7742 30.2473 50.0588 30.4303 50.3028 30.715C50.5468 30.959 50.7298 31.264 50.8518 31.63C51.0145 31.9553 51.0958 32.2807 51.0958 32.606C51.0958 32.9313 51.0348 33.1753 50.9128 33.338C50.9128 33.3787 50.8925 33.399 50.8518 33.399C50.8518 33.399 50.8518 33.4193 50.8518 33.46C50.4452 33.948 50.0588 34.009 49.6928 33.643C49.3675 33.2363 49.0625 32.7077 48.7778 32.057C48.3305 32.3823 47.8222 32.8703 47.2528 33.521C46.6835 34.1717 46.1345 34.9647 45.6058 35.9C45.1178 36.7947 44.6908 37.8113 44.3248 38.95C43.9995 40.0887 43.8368 41.3087 43.8368 42.61C43.8368 43.342 43.9385 43.9723 44.1418 44.501C44.3452 45.0297 44.8128 45.355 45.5448 45.477C46.3582 45.599 47.4968 45.538 48.9608 45.294C50.4655 45.05 52.1938 44.6637 54.1458 44.135C56.0978 43.6063 58.1922 42.9557 60.4288 42.183C62.7062 41.4103 65.0242 40.536 67.3828 39.56C69.7822 38.584 72.1612 37.547 74.5198 36.449C76.8785 35.351 79.1152 34.2327 81.2298 33.094C81.4332 33.0127 81.5755 32.9313 81.6568 32.85C81.7788 32.728 81.9415 32.6263 82.1448 32.545C82.2262 32.6263 82.3278 32.667 82.4498 32.667C82.3685 32.789 82.2262 32.911 82.0228 33.033C81.8195 33.155 81.6162 33.3177 81.4128 33.521C79.9082 34.4563 78.0985 35.4527 75.9838 36.51C73.8692 37.5267 71.6122 38.523 69.2128 39.499C66.8542 40.475 64.4345 41.39 61.9538 42.244C59.5138 43.1387 57.1958 43.891 54.9998 44.501C52.8445 45.1517 50.9128 45.6397 49.2048 45.965C47.4968 46.331 46.1955 46.4733 45.3008 46.392C44.1215 46.27 43.2065 45.7617 42.5558 44.867C41.9052 43.9723 41.6408 42.9353 41.7628 41.756C41.9255 40.2107 42.2305 38.828 42.6778 37.608C43.1252 36.3473 43.6132 35.2493 44.1418 34.314C42.3932 35.168 40.2988 35.7577 37.8588 36.083C35.4595 36.3677 32.9178 36.5507 30.2338 36.632C27.5498 36.7133 24.8048 36.754 21.9988 36.754C19.1928 36.7133 16.5088 36.815 13.9468 37.059C11.3848 37.2623 9.04649 37.669 6.93182 38.279C4.81715 38.8483 3.08882 39.7837 1.74682 41.085C1.62482 41.207 1.46215 41.268 1.25882 41.268C1.09615 41.268 0.933487 41.2477 0.77082 41.207C0.64882 41.1257 0.567487 41.024 0.52682 40.902C0.486154 40.78 0.547154 40.658 0.70982 40.536ZM123.874 33.094C124.036 32.972 124.179 32.8703 124.301 32.789C124.423 32.7077 124.585 32.6263 124.789 32.545C124.87 32.6263 124.972 32.667 125.094 32.667C125.012 32.789 124.87 32.911 124.667 33.033C124.463 33.155 124.26 33.3177 124.057 33.521C122.145 34.8223 120.092 36.3677 117.896 38.157C115.7 39.9057 113.443 41.6747 111.125 43.464C108.807 45.2533 106.489 46.941 104.171 48.527C101.893 50.113 99.7176 51.333 97.6436 52.187C95.5696 53.0817 93.6379 53.4883 91.8486 53.407C90.0999 53.3663 88.6156 52.614 87.3956 51.15C86.7856 50.418 86.3993 49.5233 86.2366 48.466C86.0739 47.4087 86.0536 46.3717 86.1756 45.355C86.2569 44.3383 86.3586 43.342 86.4806 42.366C86.6433 41.39 86.8059 40.4343 86.9686 39.499C87.0499 39.1737 87.0906 38.889 87.0906 38.645C87.1313 38.3603 87.1109 38.0553 87.0296 37.73C86.9076 36.998 86.5823 36.8963 86.0536 37.425C85.6063 37.791 85.2606 38.218 85.0166 38.706C84.7726 39.194 84.5693 39.7227 84.4066 40.292C84.2439 40.9427 84.1219 41.5933 84.0406 42.244C83.9999 42.8947 84.1423 43.525 84.4676 44.135C84.5083 44.2977 84.4879 44.3993 84.4066 44.44C84.3253 44.5213 84.2236 44.562 84.1016 44.562C84.0203 44.6027 83.9389 44.6433 83.8576 44.684C83.8169 44.7653 83.8576 44.867 83.9796 44.989C84.0609 45.0703 83.9999 45.111 83.7966 45.111C83.6339 45.111 83.4916 45.05 83.3696 44.928C83.0443 44.7653 82.8003 44.562 82.6376 44.318C82.4749 44.074 82.3123 43.8097 82.1496 43.525C81.8243 42.671 81.6006 41.634 81.4786 40.414C81.3566 39.1533 81.3159 37.8317 81.3566 36.449C81.3973 35.0257 81.5193 33.582 81.7226 32.118C81.9666 30.654 82.2919 29.2713 82.6986 27.97C83.5526 25.3673 84.6099 22.846 85.8706 20.406C87.1313 17.9253 88.4733 15.6277 89.8966 13.513C91.3199 11.3983 92.7636 9.52766 94.2276 7.901C95.7323 6.23367 97.0946 4.912 98.3146 3.936C99.0873 3.326 100.002 2.73633 101.06 2.167C102.158 1.59766 103.174 1.39433 104.11 1.557C104.882 1.71966 105.452 2.045 105.818 2.533C106.184 2.98033 106.387 3.509 106.428 4.119C106.509 4.729 106.468 5.35933 106.306 6.01C106.143 6.66067 105.919 7.23 105.635 7.718C104.903 9.01933 103.947 10.4223 102.768 11.927C101.629 13.391 100.368 14.916 98.9856 16.502C97.6029 18.0473 96.1796 19.5927 94.7156 21.138C93.2516 22.6833 91.8283 24.1473 90.4456 25.53C89.0629 26.9127 87.7819 28.1937 86.6026 29.373C85.4233 30.5117 84.4473 31.4673 83.6746 32.24C83.5119 33.948 83.4103 35.5137 83.3696 36.937C83.3289 38.3197 83.3493 39.2143 83.4306 39.621C83.5933 39.3363 83.7763 38.9907 83.9796 38.584C84.1829 38.1367 84.4269 37.73 84.7116 37.364C85.0369 36.998 85.4029 36.7133 85.8096 36.51C86.2163 36.266 86.7043 36.1847 87.2736 36.266C88.0869 36.51 88.5953 37.0793 88.7986 37.974C88.8393 38.584 88.8393 39.1533 88.7986 39.682C88.7173 40.6987 88.5953 41.695 88.4326 42.671C88.2699 43.647 88.1073 44.623 87.9446 45.599C87.8633 45.965 87.7819 46.392 87.7006 46.88C87.6599 47.4087 87.6396 47.917 87.6396 48.405C87.6803 48.9337 87.7616 49.4217 87.8836 49.869C88.0056 50.3163 88.2089 50.6823 88.4936 50.967C89.6323 52.187 91.0759 52.7157 92.8246 52.553C94.6139 52.3903 96.5659 51.8007 98.6806 50.784C100.836 49.808 103.073 48.5067 105.391 46.88C107.709 45.2533 109.986 43.586 112.223 41.878C114.459 40.1293 116.574 38.462 118.567 36.876C120.6 35.29 122.369 34.0293 123.874 33.094ZM83.8576 31.081C84.5896 30.471 85.5046 29.6373 86.6026 28.58C87.7006 27.5227 88.8596 26.323 90.0796 24.981C91.3403 23.5983 92.6213 22.1547 93.9226 20.65C95.2646 19.1453 96.5456 17.661 97.7656 16.197C99.0263 14.6923 100.165 13.269 101.182 11.927C102.239 10.5443 103.093 9.34467 103.744 8.328C104.028 7.88066 104.272 7.39267 104.476 6.864C104.679 6.33533 104.842 5.80666 104.964 5.278C105.126 4.668 105.106 3.997 104.903 3.265C104.659 2.81766 104.313 2.594 103.866 2.594C103.459 2.594 103.032 2.716 102.585 2.96C102.137 3.204 101.71 3.509 101.304 3.875C100.897 4.20033 100.572 4.46466 100.328 4.668C99.1076 5.60333 97.7656 6.925 96.3016 8.633C94.8783 10.341 93.4549 12.232 92.0316 14.306C90.6083 16.38 89.2663 18.576 88.0056 20.894C86.7449 23.1713 85.7283 25.3673 84.9556 27.482C84.7929 27.848 84.5896 28.397 84.3456 29.129C84.1423 29.861 83.9796 30.5117 83.8576 31.081ZM145.786 39.56C148.389 38.8687 150.991 37.9943 153.594 36.937C156.197 35.8797 158.698 34.5987 161.097 33.094C161.26 32.972 161.402 32.8703 161.524 32.789C161.646 32.7077 161.809 32.6263 162.012 32.545C162.093 32.6263 162.195 32.667 162.317 32.667C162.236 32.789 162.093 32.911 161.89 33.033C161.687 33.155 161.483 33.3177 161.28 33.521C158.881 35.107 156.38 36.4287 153.777 37.486C151.174 38.5027 148.551 39.377 145.908 40.109C144.322 40.5563 142.594 40.963 140.723 41.329C138.852 41.6543 137.022 41.8983 135.233 42.061C133.484 42.2643 131.837 42.3457 130.292 42.305C128.787 42.305 127.547 42.1423 126.571 41.817C125.31 41.4103 124.477 40.6377 124.07 39.499C123.663 38.3603 123.521 37.12 123.643 35.778C123.765 34.436 124.09 33.1347 124.619 31.874C125.188 30.5727 125.778 29.5763 126.388 28.885C127.283 27.787 128.442 27.4617 129.865 27.909C130.76 28.153 131.085 28.6817 130.841 29.495C130.516 30.9997 129.845 32.2603 128.828 33.277C128.259 33.8463 127.608 34.0903 126.876 34.009C126.429 33.9683 126.144 34.1717 126.022 34.619C125.9 35.0257 125.798 35.5543 125.717 36.205C125.636 36.815 125.595 37.4453 125.595 38.096C125.636 38.706 125.737 39.2957 125.9 39.865C126.103 40.3937 126.408 40.78 126.815 41.024C127.466 41.4307 128.523 41.6543 129.987 41.695C131.492 41.7357 133.159 41.6747 134.989 41.512C136.819 41.3087 138.69 41.0443 140.601 40.719C142.553 40.353 144.281 39.9667 145.786 39.56ZM126.876 32.911C127.323 32.5857 127.608 32.24 127.73 31.874C127.893 31.4673 127.994 31.0403 128.035 30.593C127.71 30.9183 127.445 31.2437 127.242 31.569C127.039 31.8943 126.917 32.3417 126.876 32.911ZM161.484 46.392C160.305 46.27 159.39 45.7617 158.739 44.867C158.089 43.9723 157.824 42.9353 157.946 41.756C158.068 40.3327 158.333 39.0517 158.739 37.913C159.146 36.7337 159.593 35.6967 160.081 34.802C160.529 33.9073 160.996 33.1753 161.484 32.606C161.932 31.996 162.298 31.5283 162.582 31.203C162.989 30.7557 163.436 30.4507 163.924 30.288C164.453 30.1253 165.022 30.0847 165.632 30.166C165.958 30.2473 166.242 30.4303 166.486 30.715C166.73 30.959 166.913 31.264 167.035 31.63C167.198 31.9553 167.279 32.2807 167.279 32.606C167.279 32.9313 167.218 33.1753 167.096 33.338C167.096 33.3787 167.076 33.399 167.035 33.399C167.035 33.399 167.035 33.4193 167.035 33.46C166.629 33.948 166.242 34.009 165.876 33.643C165.551 33.2363 165.246 32.7077 164.961 32.057C164.514 32.3823 164.006 32.8703 163.436 33.521C162.867 34.1717 162.318 34.9647 161.789 35.9C161.301 36.7947 160.895 37.8113 160.569 38.95C160.203 40.0887 160.02 41.3087 160.02 42.61C160.02 43.342 160.122 43.9723 160.325 44.501C160.529 45.0297 160.996 45.355 161.728 45.477C162.542 45.599 163.68 45.538 165.144 45.294C166.649 45.05 168.377 44.6637 170.329 44.135C172.281 43.6063 174.376 42.9557 176.612 42.183C178.89 41.4103 181.208 40.536 183.566 39.56C185.966 38.584 188.345 37.547 190.703 36.449C193.062 35.351 195.299 34.2327 197.413 33.094C197.617 33.0127 197.759 32.9313 197.84 32.85C197.962 32.728 198.125 32.6263 198.328 32.545C198.41 32.6263 198.511 32.667 198.633 32.667C198.552 32.789 198.41 32.911 198.206 33.033C198.003 33.155 197.8 33.3177 197.596 33.521C196.092 34.4563 194.282 35.4527 192.167 36.51C190.053 37.5267 187.796 38.523 185.396 39.499C183.038 40.475 180.618 41.39 178.137 42.244C175.697 43.1387 173.379 43.891 171.183 44.501C169.028 45.1517 167.096 45.6397 165.388 45.965C163.68 46.331 162.379 46.4733 161.484 46.392ZM199.898 41.268C199.857 41.5527 199.837 41.7967 199.837 42C199.837 42.2033 199.877 42.4067 199.959 42.61C200.04 42.8133 200.162 43.0573 200.325 43.342C200.528 43.6267 200.792 44.013 201.118 44.501C200.874 44.623 200.65 44.6433 200.447 44.562C200.284 44.4807 200.101 44.3993 199.898 44.318C199.206 43.83 198.739 43.1793 198.495 42.366C198.129 41.3493 197.864 40.3327 197.702 39.316C197.498 38.2587 197.437 37.2013 197.519 36.144L198.007 30.044C198.169 28.7833 198.413 27.543 198.739 26.323C199.105 25.103 199.511 23.9033 199.959 22.724C201.138 19.1453 202.643 15.8107 204.473 12.72C206.343 9.62933 208.478 6.681 210.878 3.875C211.203 3.46833 211.549 3.082 211.915 2.716C212.321 2.35 212.748 2.00433 213.196 1.679C213.562 1.47567 213.907 1.313 214.233 1.191C214.599 1.02833 215.005 0.946998 215.453 0.946998C216.795 0.824997 217.547 1.435 217.71 2.777C217.791 3.46833 217.771 4.13933 217.649 4.79C217.567 5.4 217.425 6.03033 217.222 6.681C216.652 8.22633 215.981 9.731 215.209 11.195C214.436 12.6183 213.602 14.0213 212.708 15.404C211.325 17.478 209.841 19.491 208.255 21.443C206.709 23.3543 205.164 25.286 203.619 27.238C203.253 27.6853 202.887 28.153 202.521 28.641C202.155 29.0883 201.768 29.5357 201.362 29.983C200.589 30.7557 200.121 31.6503 199.959 32.667C199.877 33.2363 199.776 33.8057 199.654 34.375C199.532 34.9037 199.45 35.4527 199.41 36.022C199.654 35.9813 199.816 35.9 199.898 35.778C199.979 35.6153 200.06 35.473 200.142 35.351C200.711 34.6597 201.28 33.9683 201.85 33.277C202.419 32.5857 203.029 31.9147 203.68 31.264C203.964 30.9387 204.249 30.715 204.534 30.593C204.859 30.4303 205.245 30.41 205.693 30.532C206.221 30.6133 206.323 30.8573 205.998 31.264C205.428 32.1587 204.757 33.094 203.985 34.07C203.497 34.7613 203.009 35.4323 202.521 36.083C202.033 36.693 201.606 37.364 201.24 38.096C200.792 39.0313 200.67 39.682 200.874 40.048C201.118 40.414 201.687 40.8207 202.582 41.268C203.436 41.7153 204.656 42 206.242 42.122C207.828 42.244 209.617 42.2237 211.61 42.061C213.643 41.8983 215.839 41.5933 218.198 41.146C220.556 40.658 222.956 40.048 225.396 39.316C227.836 38.5433 230.255 37.6487 232.655 36.632C235.095 35.5747 237.392 34.3953 239.548 33.094C239.71 33.0127 239.853 32.9313 239.975 32.85C240.097 32.728 240.259 32.6263 240.463 32.545C240.544 32.6263 240.646 32.667 240.768 32.667C240.686 32.789 240.544 32.911 240.341 33.033C240.137 33.155 239.934 33.3177 239.731 33.521C236.315 35.5137 232.675 37.2013 228.812 38.584C224.989 39.9667 221.248 41.0037 217.588 41.695C213.928 42.3457 210.532 42.6507 207.401 42.61C204.31 42.5693 201.809 42.122 199.898 41.268ZM201.118 28.275C201.362 28.2343 201.524 28.1733 201.606 28.092C201.728 27.97 201.829 27.8683 201.911 27.787C203.09 26.2823 204.269 24.798 205.449 23.334C206.669 21.87 207.828 20.3653 208.926 18.82C210.471 16.746 211.813 14.6517 212.952 12.537C213.521 11.4797 214.05 10.402 214.538 9.304C215.026 8.206 215.432 7.06733 215.758 5.888C215.92 5.35933 216.022 4.81033 216.063 4.241C216.103 3.67167 216.042 3.082 215.88 2.472C215.839 2.106 215.615 2.02467 215.209 2.228C214.883 2.472 214.578 2.75667 214.294 3.082C214.009 3.36666 213.724 3.692 213.44 4.058C210.878 7.31133 208.6 10.707 206.608 14.245C204.615 17.7423 203.029 21.504 201.85 25.53C201.728 25.9773 201.585 26.445 201.423 26.933C201.301 27.3803 201.199 27.8277 201.118 28.275ZM278.124 33.094C278.287 32.972 278.429 32.8703 278.551 32.789C278.673 32.7077 278.836 32.6263 279.039 32.545C279.121 32.6263 279.222 32.667 279.344 32.667C279.263 32.789 279.121 32.911 278.917 33.033C278.714 33.155 278.511 33.3177 278.307 33.521C276.681 34.619 274.952 35.4933 273.122 36.144C271.292 36.754 269.442 37.2217 267.571 37.547C265.701 37.8723 263.83 38.0757 261.959 38.157C260.089 38.1977 258.299 38.157 256.591 38.035C254.883 37.913 253.297 37.73 251.833 37.486C250.369 37.242 249.109 36.998 248.051 36.754C247.604 36.6727 247.096 36.5507 246.526 36.388C245.957 36.2253 245.469 36.083 245.062 35.961C244.493 35.7577 243.985 35.6763 243.537 35.717C243.09 35.7577 242.643 36.1643 242.195 36.937C241.992 37.3437 241.687 37.6487 241.28 37.852C240.914 38.0147 240.508 38.096 240.06 38.096C239.003 38.0147 238.535 37.4657 238.657 36.449C238.82 35.595 239.166 34.7817 239.694 34.009C240.02 33.521 240.02 33.0127 239.694 32.484C239.288 31.8333 239.044 31.1623 238.962 30.471C238.84 29.7797 238.82 29.068 238.901 28.336C239.145 26.262 239.857 24.432 241.036 22.846C241.321 22.48 241.626 22.1547 241.951 21.87C242.277 21.5853 242.663 21.382 243.11 21.26C243.883 21.016 244.554 21.0363 245.123 21.321C245.693 21.6057 246.12 22.114 246.404 22.846C246.608 23.456 246.709 24.066 246.709 24.676C246.75 25.286 246.709 25.896 246.587 26.506C246.181 28.9867 245.408 31.386 244.269 33.704C244.066 34.192 243.985 34.497 244.025 34.619C244.066 34.7003 244.31 34.8427 244.757 35.046C246.343 35.6153 248.438 36.1847 251.04 36.754C253.684 37.2827 256.53 37.5877 259.58 37.669C262.63 37.7097 265.762 37.4047 268.974 36.754C272.228 36.1033 275.278 34.8833 278.124 33.094ZM244.696 25.652C244.656 25.286 244.635 24.9607 244.635 24.676C244.635 24.3507 244.595 24.0253 244.513 23.7C244.432 23.4967 244.351 23.273 244.269 23.029C244.229 22.7443 244.086 22.5613 243.842 22.48C243.598 22.3987 243.395 22.48 243.232 22.724C243.11 22.9273 242.968 23.1307 242.805 23.334C242.195 24.188 241.707 25.103 241.341 26.079C241.016 27.0143 240.792 28.0107 240.67 29.068C240.589 29.4747 240.589 29.861 240.67 30.227C240.752 30.593 240.833 30.959 240.914 31.325C240.955 31.447 240.996 31.569 241.036 31.691C241.077 31.813 241.179 31.8943 241.341 31.935C241.87 31.9757 242.053 32.2603 241.89 32.789C241.809 32.9923 241.829 33.155 241.951 33.277C242.073 33.3583 242.195 33.4397 242.317 33.521C242.561 33.6023 242.704 33.5617 242.744 33.399C242.785 33.2363 242.846 33.094 242.927 32.972C243.415 31.7927 243.802 30.593 244.086 29.373C244.412 28.153 244.615 26.9127 244.696 25.652ZM240.182 37.364C240.63 36.998 240.955 36.632 241.158 36.266C241.402 35.9 241.626 35.5543 241.829 35.229C241.951 35.0257 241.972 34.863 241.89 34.741C241.809 34.619 241.687 34.5173 241.524 34.436C241.199 34.2327 240.975 34.3343 240.853 34.741C240.691 35.107 240.508 35.4933 240.304 35.9C240.142 36.3067 240.101 36.7947 240.182 37.364ZM288.184 44.074C287.167 43.7893 286.333 43.159 285.683 42.183C285.073 41.207 284.869 40.0277 285.073 38.645L285.5 36.693C285.296 36.6117 285.134 36.632 285.012 36.754C284.93 36.876 284.849 36.9777 284.768 37.059L282.206 39.438C282.002 39.6007 281.799 39.7633 281.596 39.926C281.433 40.048 281.25 40.17 281.047 40.292C279.989 40.9427 279.074 41.0647 278.302 40.658C277.529 40.2513 277.122 39.4583 277.082 38.279C277.041 36.8557 277.265 35.534 277.753 34.314C278.241 33.0533 278.932 31.874 279.827 30.776C280.111 30.4507 280.538 30.2473 281.108 30.166C282.002 30.166 282.226 30.5727 281.779 31.386C281.331 32.24 280.904 33.1143 280.498 34.009C280.132 34.9037 279.827 35.8187 279.583 36.754C279.501 37.0793 279.44 37.4047 279.4 37.73C279.359 38.0147 279.359 38.3197 279.4 38.645C279.4 38.8077 279.4 38.9907 279.4 39.194C279.4 39.3567 279.501 39.4787 279.705 39.56C279.867 39.6413 280.01 39.6413 280.132 39.56C280.254 39.438 280.376 39.3363 280.498 39.255L281.535 38.462C282.226 37.8927 282.897 37.3233 283.548 36.754C284.239 36.144 284.91 35.534 285.561 34.924C285.886 34.5987 286.191 34.2733 286.476 33.948C286.801 33.6227 287.086 33.2363 287.33 32.789C287.452 32.5857 287.594 32.4027 287.757 32.24C287.919 32.0367 288.143 31.9147 288.428 31.874C288.672 31.874 288.916 31.874 289.16 31.874C289.404 31.874 289.607 31.9757 289.77 32.179C289.932 32.3823 289.953 32.5653 289.831 32.728C289.709 32.8907 289.607 33.0737 289.526 33.277C289.119 34.2123 288.733 35.1477 288.367 36.083C288.041 36.9777 287.777 37.913 287.574 38.889C287.452 39.3363 287.391 39.7837 287.391 40.231C287.309 42.305 288.407 43.5047 290.685 43.83C292.027 44.0333 293.918 43.891 296.358 43.403C298.798 42.9557 301.461 42.244 304.349 41.268C307.277 40.292 310.286 39.1127 313.377 37.73C316.467 36.3067 319.334 34.7613 321.978 33.094C322.14 32.972 322.283 32.8703 322.405 32.789C322.527 32.7077 322.689 32.6263 322.893 32.545C322.974 32.6263 323.076 32.667 323.198 32.667C323.116 32.789 322.974 32.911 322.771 33.033C322.567 33.155 322.364 33.3177 322.161 33.521C319.721 35.1477 317.057 36.632 314.17 37.974C311.323 39.316 308.517 40.475 305.752 41.451C303.027 42.427 300.506 43.1793 298.188 43.708C295.87 44.2773 294.06 44.562 292.759 44.562C292.067 44.562 291.315 44.5213 290.502 44.44C289.729 44.3993 288.956 44.2773 288.184 44.074ZM362.156 33.094C362.318 32.972 362.461 32.8703 362.583 32.789C362.705 32.7077 362.867 32.6263 363.071 32.545C363.152 32.6263 363.254 32.667 363.376 32.667C363.294 32.789 363.152 32.911 362.949 33.033C362.745 33.155 362.542 33.3177 362.339 33.521C360.712 34.4157 358.74 35.656 356.422 37.242C354.104 38.7873 351.623 40.414 348.98 42.122C346.377 43.83 343.713 45.4567 340.989 47.002C338.264 48.5473 335.661 49.7267 333.181 50.54C330.741 51.394 328.524 51.7397 326.532 51.577C324.539 51.455 322.973 50.54 321.835 48.832C321.103 47.734 320.676 46.3717 320.554 44.745C320.391 43.159 320.452 41.451 320.737 39.621C321.021 37.7503 321.489 35.8187 322.14 33.826C322.75 31.8333 323.441 29.8813 324.214 27.97C324.986 26.018 325.779 24.1677 326.593 22.419C327.447 20.6703 328.219 19.1047 328.911 17.722C328.951 17.6 328.992 17.5187 329.033 17.478C329.114 17.4373 329.114 17.3153 329.033 17.112C328.626 17.0307 328.28 16.9697 327.996 16.929C327.752 16.8883 327.365 16.8477 326.837 16.807C326.308 16.7663 325.576 16.7257 324.641 16.685C323.705 16.6443 322.363 16.5833 320.615 16.502C320.411 16.502 320.228 16.4613 320.066 16.38C319.903 16.2987 319.903 16.0953 320.066 15.77C320.147 15.5667 320.289 15.4853 320.493 15.526C320.696 15.526 320.899 15.526 321.103 15.526C321.835 15.526 322.607 15.5463 323.421 15.587C324.234 15.6277 325.027 15.6683 325.8 15.709C326.613 15.7497 327.345 15.8107 327.996 15.892C328.687 15.9327 329.277 15.9937 329.765 16.075C329.846 15.9937 330.009 15.7293 330.253 15.282C330.497 14.794 330.761 14.245 331.046 13.635C331.33 13.025 331.615 12.415 331.9 11.805C332.184 11.1543 332.428 10.646 332.632 10.28C332.713 10.1173 332.815 9.95466 332.937 9.792C333.059 9.62933 333.242 9.52767 333.486 9.487C333.689 9.40566 333.831 9.38533 333.913 9.426C333.994 9.426 334.136 9.50733 334.34 9.67C334.584 9.87333 334.665 10.0767 334.584 10.28C334.543 10.4833 334.482 10.6867 334.401 10.89C334.197 11.622 333.953 12.354 333.669 13.086C333.425 13.7773 333.14 14.4687 332.815 15.16C332.611 15.526 332.449 15.892 332.327 16.258C332.327 16.2173 332.591 16.2173 333.12 16.258C333.648 16.2987 334.299 16.38 335.072 16.502C335.844 16.5833 336.698 16.685 337.634 16.807C338.61 16.929 339.545 17.051 340.44 17.173C341.334 17.295 342.148 17.417 342.88 17.539C343.612 17.6203 344.161 17.6813 344.527 17.722L345.503 17.905C345.055 17.9863 344.588 18.0067 344.1 17.966C343.612 17.8847 343.124 17.8643 342.636 17.905C341.904 17.9457 341.029 17.9253 340.013 17.844C339.037 17.7627 338.02 17.6813 336.963 17.6C335.946 17.5187 334.95 17.4577 333.974 17.417C333.038 17.3763 332.266 17.3763 331.656 17.417C331.29 18.149 330.72 19.308 329.948 20.894C329.175 22.48 328.341 24.31 327.447 26.384C326.593 28.4173 325.739 30.5727 324.885 32.85C324.071 35.1273 323.441 37.3437 322.994 39.499C322.546 41.6137 322.363 43.5453 322.445 45.294C322.567 47.0427 323.116 48.405 324.092 49.381C325.068 50.357 326.471 50.7433 328.301 50.54C330.171 50.3773 332.266 49.8283 334.584 48.893C336.942 47.9577 339.423 46.758 342.026 45.294C344.628 43.83 347.17 42.3457 349.651 40.841C352.131 39.2957 354.449 37.8317 356.605 36.449C358.801 35.0257 360.651 33.9073 362.156 33.094Z" fill="#FFF1E6"/>
</svg>
